<svg xmlns="http://www.w3.org/2000/svg" version="1.1" xmlns:xlink="http://www.w3.org/1999/xlink" xmlns:svgjs="http://svgjs.dev/svgjs" width="1440" height="560" preserveAspectRatio="none" viewBox="0 0 1440 560"><g mask="url(&quot;#SvgjsMask1110&quot;)" fill="none"><path d="M -477.0523302749516,217 C -381.05,243 -189.05,347.6 2.9476697250484207,347 C 194.95,346.4 290.95,217.2 482.9476697250484,214 C 674.95,210.8 770.95,327.4 962.9476697250484,331 C 1154.95,334.6 1347.54,237.4 1442.9476697250484,232 C 1538.36,226.6 1440.59,289.6 1440,304" stroke="rgba(51, 121, 194, 0.58)" stroke-width="2"></path><path d="M -655.947336753221,286 C -559.95,279.4 -367.95,239.6 -175.9473367532209,253 C 16.05,266.4 112.05,350 304.0526632467791,353 C 496.05,356 592.05,270.4 784.052663246779,268 C 976.05,265.6 1132.86,351 1264.052663246779,341 C 1395.24,331 1404.81,242.6 1440,218" stroke="rgba(51, 121, 194, 0.58)" stroke-width="2"></path><path d="M -890.432205593002,348 C -794.43,324 -602.43,233.2 -410.43220559300204,228 C -218.43,222.8 -122.43,323.6 69.56779440699796,322 C 261.57,320.4 357.57,219.2 549.567794406998,220 C 741.57,220.8 851.48,330 1029.567794406998,326 C 1207.65,322 1357.91,225.2 1440,200" stroke="rgba(51, 121, 194, 0.58)" stroke-width="2"></path><path d="M -311.04057275534433,201 C -215.04,231.8 -23.04,354.4 168.95942724465567,355 C 360.96,355.6 456.96,211 648.9594272446557,204 C 840.96,197 936.96,314.8 1128.9594272446557,320 C 1320.96,325.2 1546.75,230 1608.9594272446557,230 C 1671.17,230 1473.79,302 1440,320" stroke="rgba(51, 121, 194, 0.58)" stroke-width="2"></path><path d="M -409.3860352810031,343 C -313.39,321.4 -121.39,247.2 70.61396471899691,235 C 262.61,222.8 358.61,279.4 550.613964718997,282 C 742.61,284.6 838.61,236.6 1030.6139647189968,248 C 1222.61,259.4 1428.74,333.4 1510.6139647189968,339 C 1592.49,344.6 1454.12,288.6 1440,276" stroke="rgba(51, 121, 194, 0.58)" stroke-width="2"></path><path d="M -74.59291500564478,312 C 21.41,291 213.41,210.8 405.4070849943552,207 C 597.41,203.2 693.41,294 885.4070849943553,293 C 1077.41,292 1173.41,192.4 1365.4070849943553,202 C 1557.41,211.6 1830.49,336.6 1845.4070849943553,341 C 1860.33,345.4 1521.08,247.4 1440,224" stroke="rgba(51, 121, 194, 0.58)" stroke-width="2"></path><path d="M -510.41080398991437,214 C -414.41,227.4 -222.41,282.4 -30.4108039899144,281 C 161.59,279.6 257.59,203.2 449.58919601008563,207 C 641.59,210.8 737.59,287.4 929.5891960100856,300 C 1121.59,312.6 1307.51,270.6 1409.5891960100855,270 C 1511.67,269.4 1433.92,291.6 1440,297" stroke="rgba(51, 121, 194, 0.58)" stroke-width="2"></path><path d="M -290.9390181806539,264 C -194.94,272 -2.94,316.2 189.06098181934613,304 C 381.06,291.8 477.06,204.2 669.0609818193461,203 C 861.06,201.8 957.06,295 1149.0609818193461,298 C 1341.06,301 1570.87,210.8 1629.0609818193461,218 C 1687.25,225.2 1477.81,310.8 1440,334" stroke="rgba(51, 121, 194, 0.58)" stroke-width="2"></path></g><defs><mask id="SvgjsMask1110"><rect width="1440" height="560" fill="#ffffff"></rect></mask></defs></svg>